<?xml version="1.0" standalone="no"?>
<!DOCTYPE svg PUBLIC "-//W3C//DTD SVG 20010904//EN"
 "http://www.w3.org/TR/2001/REC-SVG-20010904/DTD/svg10.dtd">
<svg version="1.0" xmlns="http://www.w3.org/2000/svg"
 width="500.000000pt" height="500.000000pt" viewBox="0 0 500.000000 500.000000"
 preserveAspectRatio="xMidYMid meet">
<metadata>
Created by potrace 1.14, written by Peter Selinger 2001-2017
</metadata>
<g transform="translate(0.000000,500.000000) scale(0.100000,-0.100000)"
fill="#000000" stroke="none">
<path d="M2205 4166 c-204 -44 -457 -151 -623 -265 -85 -59 -223 -185 -322
-296 -183 -204 -308 -461 -371 -760 -20 -95 -23 -139 -24 -325 0 -279 15 -393
77 -570 107 -305 286 -551 572 -789 138 -115 227 -168 401 -242 70 -29 247
-76 360 -94 126 -21 454 -13 575 14 708 159 1196 691 1286 1401 3 28 7 181 5
220 -2 25 -2 25 -17 5 -8 -11 -13 -28 -11 -37 3 -9 1 -18 -4 -20 -5 -2 -10
-12 -12 -23 -2 -11 -7 -28 -12 -38 -4 -10 -5 -20 -2 -23 14 -14 -144 -393
-231 -554 -10 -19 -29 -56 -41 -81 -38 -78 -208 -269 -308 -346 -18 -14 -33
-32 -33 -40 0 -19 -23 -42 -105 -100 -134 -96 -299 -166 -470 -198 -76 -14
-103 -17 -182 -20 -83 -3 -131 -15 -59 -15 53 0 37 -16 -21 -20 -78 -5 -264
-4 -323 3 -118 13 -302 56 -294 69 3 4 -2 5 -10 2 -16 -6 -161 53 -244 101
-29 16 -64 35 -76 42 -30 16 -62 52 -44 49 32 -5 96 -31 133 -53 22 -13 48
-26 58 -30 9 -3 17 -10 17 -15 0 -5 4 -6 10 -3 5 3 10 1 10 -5 0 -6 5 -8 10
-5 6 3 10 1 10 -4 0 -6 6 -11 13 -11 6 0 -8 18 -33 41 -25 23 -35 36 -23 30
27 -14 33 -14 33 -1 0 6 -5 10 -11 10 -6 0 -17 7 -25 15 -22 21 -4 18 31 -5
36 -25 125 -67 220 -105 39 -16 77 -36 87 -47 9 -10 29 -18 45 -18 17 0 33 -3
36 -7 4 -3 17 -7 29 -8 197 -19 324 -27 317 -20 -3 2 -30 7 -60 11 -62 7 -76
13 -33 15 16 1 36 2 44 3 8 1 23 -2 33 -7 9 -4 17 -4 17 1 0 5 19 9 43 9 87 0
117 3 117 11 0 4 -69 8 -152 8 -84 0 -178 4 -208 8 -30 4 -84 9 -120 12 -54 4
-91 11 -150 29 -8 3 -62 25 -95 40 -16 7 -45 19 -62 26 -18 8 -33 17 -33 21 0
5 -9 8 -20 8 -11 0 -20 5 -20 10 0 6 -5 10 -10 10 -6 0 -21 9 -33 21 -16 15
-2 11 58 -16 145 -67 295 -112 425 -130 25 -3 56 -8 70 -10 33 -6 348 -7 357
-2 5 3 32 7 60 11 49 6 124 29 148 46 6 4 44 17 85 29 90 27 180 68 180 82 0
6 4 7 10 4 8 -5 98 47 137 80 7 5 19 16 27 22 8 7 18 13 21 13 7 0 30 18 60
48 12 12 26 22 31 22 5 0 15 10 23 22 12 20 9 19 -25 -7 -21 -16 -45 -35 -52
-42 -7 -7 -17 -13 -21 -13 -4 0 -16 -8 -27 -18 -10 -10 -34 -27 -51 -37 -18
-11 -33 -23 -33 -27 0 -4 -5 -8 -11 -8 -7 0 -34 -13 -60 -30 -27 -16 -60 -32
-74 -36 -14 -3 -25 -10 -25 -15 0 -5 -7 -9 -15 -9 -8 0 -23 -4 -33 -10 -25
-14 -165 -49 -174 -44 -4 3 -8 1 -8 -5 0 -6 -7 -8 -15 -5 -8 4 -23 3 -32 -1
-10 -5 -31 -9 -48 -11 -67 -7 -120 -13 -120 -14 0 -1 -19 -3 -43 -5 -29 -3
-41 -1 -36 7 5 7 3 8 -7 2 -15 -9 -149 -13 -149 -3 0 3 -16 5 -35 4 -20 -1
-35 3 -35 9 0 7 -3 7 -8 -1 -5 -7 -13 -9 -21 -3 -8 4 -21 6 -29 2 -10 -3 -13
-1 -8 6 11 18 158 12 174 -7 10 -14 11 -14 7 -1 -4 11 3 15 30 15 19 0 35 -4
35 -8 0 -5 5 -5 11 -1 7 4 39 8 73 10 88 5 136 11 143 17 3 3 -21 3 -54 0
-125 -11 -346 -5 -428 11 -365 75 -656 244 -866 503 -120 148 -194 289 -254
483 -8 27 -33 144 -39 185 -3 22 -8 51 -11 65 -3 14 -7 53 -9 87 -3 34 -9 71
-15 81 -6 11 -9 21 -7 23 2 2 6 29 10 59 7 69 15 111 23 130 6 14 9 25 16 53
22 81 84 239 118 295 11 19 64 93 118 166 108 144 215 252 339 344 85 63 244
147 274 145 10 -1 16 2 14 6 -3 4 1 8 9 8 21 0 19 -13 -2 -22 -10 -3 -18 -5
-18 -4 0 1 -11 -3 -23 -10 -32 -17 -22 -24 14 -11 16 6 99 30 184 52 155 41
155 41 335 41 147 -1 196 -5 268 -22 303 -72 657 -308 810 -539 86 -129 182
-350 201 -462 47 -282 59 -327 71 -277 10 38 11 240 2 304 -27 195 -109 402
-225 567 -115 163 -236 282 -454 445 -78 58 -143 111 -146 118 -8 25 155 -8
253 -52 17 -7 41 -16 55 -20 14 -4 28 -13 32 -19 5 -8 10 -8 18 0 7 7 -1 18
-27 35 -21 13 -38 31 -38 38 0 30 -255 140 -432 187 -145 39 -257 52 -458 53
-152 0 -197 -4 -290 -23z m329 -165 c3 -4 -18 -7 -46 -7 -60 -1 -78 -21 -21
-23 34 -1 78 -7 78 -11 0 -1 20 -3 44 -5 68 -6 190 -36 198 -48 6 -10 -168 -4
-227 8 -60 12 -189 6 -270 -14 -47 -11 -116 -27 -155 -36 -175 -39 -335 -106
-479 -200 -16 -11 -26 -13 -31 -5 -3 6 -1 9 6 8 6 -2 13 2 16 9 6 17 -19 10
-57 -17 -59 -41 -205 -191 -258 -265 -51 -72 -172 -308 -172 -337 0 -22 20 -3
45 45 47 87 118 202 127 205 4 2 8 8 8 13 0 11 2 14 55 74 49 56 43 39 -15
-48 -28 -41 -50 -79 -50 -85 0 -6 -3 -12 -7 -14 -7 -3 -67 -116 -68 -128 -1
-3 -8 -21 -17 -40 -25 -54 -38 -100 -29 -100 9 0 26 48 23 63 -1 4 3 7 8 7 6
0 10 7 10 15 0 8 5 15 11 15 5 0 8 4 4 9 -3 5 0 13 6 16 5 4 8 14 5 22 -3 8
-1 11 4 8 6 -3 10 -1 10 5 0 19 97 163 131 195 36 34 35 31 -38 -82 -29 -46
-51 -83 -47 -83 3 0 -4 -12 -15 -26 -12 -15 -21 -33 -21 -40 0 -8 -4 -14 -9
-14 -5 0 -11 -10 -14 -22 -3 -13 -22 -63 -42 -112 -21 -49 -38 -94 -40 -100
-1 -6 -5 -19 -9 -28 -4 -9 -9 -24 -10 -33 -1 -9 -8 -20 -15 -24 -17 -11 -25
-93 -26 -268 0 -84 -3 -145 -7 -135 -9 21 -2 -94 8 -128 4 -14 12 -31 17 -38
6 -8 26 -64 45 -125 46 -155 142 -350 244 -499 27 -40 -2 -24 -32 18 -47 65
-82 104 -91 99 -11 -7 -101 161 -146 273 -27 68 -41 92 -54 92 -27 0 -29 -12
-13 -59 8 -24 13 -45 10 -48 -9 -10 -68 205 -80 292 -7 55 -28 285 -29 320 0
23 14 155 18 167 2 7 7 27 9 43 10 59 39 155 47 155 5 0 6 7 3 15 -4 8 -1 15
5 15 6 0 11 -5 11 -12 0 -6 3 -8 6 -5 4 4 2 13 -5 20 -8 11 -4 30 18 84 16 38
28 81 29 96 0 33 59 141 128 232 125 167 301 322 493 436 49 29 88 57 85 61
-5 8 31 30 38 23 3 -3 31 6 63 20 87 39 220 75 299 81 39 3 72 7 74 9 7 7 202
3 206 -4z m-869 -2721 c16 -16 25 -33 22 -37 -4 -3 -7 0 -7 7 0 7 -3 10 -7 7
-3 -4 -12 2 -20 13 -8 11 -21 20 -29 20 -8 0 -14 5 -14 10 0 19 27 10 55 -20z
m682 -160 c3 -10 2 -11 -4 -4 -4 6 -15 14 -23 17 -11 5 -9 6 4 4 11 -1 21 -9
23 -17z"/>
<path d="M2342 3981 c-11 -7 -11 -9 1 -14 16 -6 27 0 27 15 0 10 -11 10 -28
-1z"/>
<path d="M2380 3978 c0 -4 9 -8 20 -8 11 0 20 4 20 9 0 6 -9 9 -20 8 -11 -1
-20 -5 -20 -9z"/>
<path d="M1146 3024 c-5 -14 -4 -15 9 -4 17 14 19 20 6 20 -5 0 -12 -7 -15
-16z"/>
<path d="M3468 3885 c-3 -14 0 -29 7 -33 11 -6 28 -42 25 -51 -1 -2 4 -8 12
-12 10 -7 10 -9 0 -9 -7 0 -10 -5 -7 -10 4 -6 11 -8 16 -5 13 9 11 53 -4 62
-17 11 -39 63 -27 63 6 0 10 5 10 10 0 22 -28 8 -32 -15z"/>
<path d="M3553 3868 c-2 -16 1 -18 10 -9 7 7 8 14 1 21 -6 6 -10 2 -11 -12z"/>
<path d="M3420 3811 c0 -10 7 -24 15 -31 13 -11 13 -8 4 19 -12 35 -19 40 -19
12z"/>
<path d="M3670 3783 c0 -6 -20 -31 -45 -55 -24 -24 -45 -49 -45 -55 0 -15 17
-17 22 -4 2 5 23 30 47 56 32 34 41 49 32 58 -8 8 -11 8 -11 0z"/>
<path d="M3731 3718 c-1 -10 -11 -23 -23 -29 -13 -7 -23 -13 -24 -13 0 -1 -9
6 -19 14 -17 14 -18 14 -5 -10 7 -14 13 -25 13 -25 0 0 -5 -9 -11 -21 -6 -12
-7 -25 -1 -35 5 -7 9 -12 10 -9 0 3 3 14 5 25 3 11 5 29 6 41 0 16 6 20 22 17
28 -6 46 16 35 42 -6 16 -8 17 -8 3z"/>
<path d="M3825 3587 c-11 -11 -37 -32 -57 -47 -32 -24 -36 -29 -23 -40 9 -8
15 -8 15 -2 0 16 17 31 94 85 15 11 16 15 5 19 -8 3 -23 -4 -34 -15z"/>
<path d="M2205 3399 c-246 -41 -335 -225 -174 -363 39 -33 180 -107 278 -146
31 -13 32 -14 12 -21 -11 -5 -21 -11 -21 -14 0 -4 5 -3 10 0 6 3 10 3 11 -2 4
-47 7 -62 14 -88 l7 -30 -18 25 c-29 40 -40 49 -91 75 -138 69 -307 51 -416
-44 -96 -85 -117 -240 -50 -364 79 -144 266 -226 521 -227 l62 0 -5 -122 c-6
-149 -13 -230 -26 -283 -6 -22 -13 -50 -16 -62 l-5 -23 396 0 396 0 -6 150
c-7 176 -7 174 -19 180 -6 3 -13 -22 -18 -57 -9 -75 -28 -122 -67 -167 -49
-55 -87 -65 -265 -67 -86 0 -158 1 -160 3 -2 2 -5 112 -7 245 l-3 241 40 12
c108 32 220 130 250 218 23 71 21 160 -4 216 -55 126 -131 180 -451 320 -58
25 -129 63 -158 83 -55 38 -94 95 -87 129 2 10 4 27 4 36 1 9 13 31 28 49 97
114 362 94 419 -33 20 -44 13 -99 -17 -127 -56 -52 -171 -16 -171 54 0 28 -27
35 -29 8 -6 -68 15 -105 74 -136 75 -39 164 -28 224 27 47 43 57 114 23 173
-27 49 -100 98 -177 119 -66 18 -234 25 -308 13z m-28 -677 c120 -62 147 -243
47 -315 -39 -29 -106 -30 -146 -3 -83 55 -61 196 31 198 26 1 29 3 19 16 -21
24 -103 10 -138 -23 -55 -53 -52 -125 9 -186 82 -82 223 -76 318 13 l32 31 -3
-79 c-1 -44 1 -92 4 -109 l7 -30 -81 1 c-157 2 -252 28 -334 94 -136 107 -124
322 21 395 62 31 151 29 214 -3z m452 -85 c6 -23 13 -56 15 -73 5 -46 -27
-138 -65 -189 -34 -44 -58 -61 -41 -27 5 9 11 78 12 152 2 118 4 152 10 230 2
26 57 -48 69 -93z"/>
<path d="M3946 3349 c-32 -21 -62 -36 -67 -33 -5 3 -6 -2 -3 -10 7 -19 18 -20
32 -3 6 7 34 24 62 37 27 13 50 27 50 31 0 19 -19 13 -74 -22z"/>
<path d="M3910 3242 c0 -5 10 -17 22 -28 12 -10 18 -13 14 -6 -4 7 -2 12 5 12
12 0 3 15 -9 15 -4 0 -13 4 -19 8 -7 5 -13 4 -13 -1z"/>
<path d="M3976 3242 c-3 -5 1 -9 9 -9 8 0 12 4 9 9 -3 4 -7 8 -9 8 -2 0 -6 -4
-9 -8z"/>
<path d="M3966 3141 c-3 -4 -1 -13 5 -21 5 -9 9 -10 9 -3 0 6 8 13 18 15 14 3
13 5 -5 10 -13 3 -25 3 -27 -1z"/>
<path d="M4066 3085 c-32 -30 -56 -62 -54 -70 2 -10 24 7 65 49 77 80 68 96
-11 21z"/>
<path d="M1343 3075 c0 -8 4 -12 9 -9 5 3 6 10 3 15 -9 13 -12 11 -12 -6z"/>
<path d="M1310 2999 c-7 -11 -10 -23 -7 -25 2 -2 9 7 15 21 14 30 7 33 -8 4z"/>
<path d="M4155 2903 c-11 -21 -28 -45 -37 -54 -10 -9 -15 -18 -13 -21 3 -3 -1
-11 -10 -18 -8 -7 -15 -17 -15 -22 0 -16 29 12 60 58 16 23 26 44 23 48 -4 3
-1 6 5 6 6 0 16 9 22 20 8 15 8 20 -2 20 -8 0 -22 -17 -33 -37z"/>
<path d="M4040 2910 c0 -24 13 -26 31 -3 10 11 10 14 2 9 -7 -4 -13 -2 -13 3
0 6 -4 11 -10 11 -5 0 -10 -9 -10 -20z"/>
<path d="M4196 2817 c-14 -11 -13 -12 9 -12 25 0 33 9 16 19 -4 3 -16 0 -25
-7z"/>
<path d="M4080 2684 c1 -27 18 -33 75 -28 33 3 66 6 73 7 6 0 12 6 12 13 0 8
-6 11 -15 7 -27 -10 -119 -10 -132 0 -7 5 -13 6 -13 1z"/>
<path d="M4162 2610 c-6 -11 -23 -22 -36 -26 -21 -5 -46 -34 -30 -34 16 0 65
33 75 51 14 27 7 34 -9 9z"/>
<path d="M4235 2590 c3 -5 8 -10 11 -10 2 0 4 5 4 10 0 6 -5 10 -11 10 -5 0
-7 -4 -4 -10z"/>
<path d="M4093 2455 c0 -8 4 -12 9 -9 4 3 8 9 8 15 0 5 -4 9 -8 9 -5 0 -9 -7
-9 -15z"/>
<path d="M4193 2382 c-24 -9 -43 -20 -43 -24 0 -10 14 -10 24 -1 3 4 16 8 29
10 22 4 44 20 36 27 -2 2 -23 -4 -46 -12z"/>
<path d="M3848 1834 c-15 -24 -23 -44 -19 -44 9 0 55 80 49 85 -2 2 -15 -17
-30 -41z"/>
<path d="M3810 1770 c-8 -5 -12 -12 -9 -15 4 -3 12 1 19 10 14 17 11 19 -10 5z"/>
<path d="M3770 1720 c-8 -16 -8 -18 4 -14 17 6 30 34 16 34 -5 0 -14 -9 -20
-20z"/>
<path d="M3745 1680 c-3 -5 -1 -10 4 -10 6 0 11 5 11 10 0 6 -2 10 -4 10 -3 0
-8 -4 -11 -10z"/>
<path d="M3493 1471 c-23 -21 -44 -37 -46 -35 -2 3 -15 -7 -28 -21 -13 -13
-28 -25 -32 -25 -11 0 -101 -62 -105 -72 -2 -4 -8 -6 -13 -2 -5 3 -9 0 -9 -7
0 -7 -3 -10 -6 -6 -3 3 -23 -4 -43 -17 -46 -28 -143 -74 -176 -82 -14 -3 -25
-10 -25 -15 0 -14 25 -4 184 71 104 49 167 86 174 103 2 4 9 7 16 7 7 0 21 9
31 20 10 11 22 20 26 20 9 0 99 85 99 94 0 10 -3 8 -47 -33z"/>
<path d="M2970 1180 c-8 -5 -10 -10 -5 -10 6 0 17 5 25 10 8 5 11 10 5 10 -5
0 -17 -5 -25 -10z"/>
<path d="M2928 1173 c-10 -2 -18 -9 -18 -14 0 -6 8 -5 20 1 11 6 20 13 20 15
0 3 -1 4 -2 4 -2 -1 -11 -3 -20 -6z"/>
<path d="M2850 1150 c0 -5 7 -7 15 -4 8 4 15 8 15 10 0 2 -7 4 -15 4 -8 0 -15
-4 -15 -10z"/>
<path d="M2780 1020 c0 -5 9 -9 20 -7 30 5 32 12 5 15 -14 1 -25 -3 -25 -8z"/>
</g>
</svg>
